# Blender v2.80 (sub 39) OBJ File: 'power_cell_cap.blend'
# www.blender.org
mtllib power_cell_cap.mtl
o Cylinder
v 0.000000 -0.200000 -1.000000
v 0.000000 0.200000 -1.000000
v 0.195090 -0.200000 -0.980785
v 0.195090 0.200000 -0.980785
v 0.382683 -0.200000 -0.923880
v 0.382683 0.200000 -0.923880
v 0.555570 -0.200000 -0.831470
v 0.555570 0.200000 -0.831470
v 0.707107 -0.200000 -0.707107
v 0.707107 0.200000 -0.707107
v 0.831470 -0.200000 -0.555570
v 0.831470 0.200000 -0.555570
v 0.923880 -0.200000 -0.382683
v 0.923880 0.200000 -0.382683
v 0.980785 -0.200000 -0.195090
v 0.980785 0.200000 -0.195090
v 1.000000 -0.200000 -0.000000
v 1.000000 0.200000 -0.000000
v 0.980785 -0.200000 0.195090
v 0.980785 0.200000 0.195090
v 0.923880 -0.200000 0.382683
v 0.923880 0.200000 0.382683
v 0.831470 -0.200000 0.555570
v 0.831470 0.200000 0.555570
v 0.707107 -0.200000 0.707107
v 0.707107 0.200000 0.707107
v 0.555570 -0.200000 0.831470
v 0.555570 0.200000 0.831470
v 0.382683 -0.200000 0.923880
v 0.382683 0.200000 0.923880
v 0.195090 -0.200000 0.980785
v 0.195090 0.200000 0.980785
v -0.000000 -0.200000 1.000000
v -0.000000 0.200000 1.000000
v -0.195091 -0.200000 0.980785
v -0.195091 0.200000 0.980785
v -0.382684 -0.200000 0.923879
v -0.382684 0.200000 0.923879
v -0.555571 -0.200000 0.831469
v -0.555571 0.200000 0.831469
v -0.707107 -0.200000 0.707106
v -0.707107 0.200000 0.707106
v -0.831470 -0.200000 0.555570
v -0.831470 0.200000 0.555570
v -0.923880 -0.200000 0.382683
v -0.923880 0.200000 0.382683
v -0.980785 -0.200000 0.195089
v -0.980785 0.200000 0.195089
v -1.000000 -0.200000 -0.000001
v -1.000000 0.200000 -0.000001
v -0.980785 -0.200000 -0.195091
v -0.980785 0.200000 -0.195091
v -0.923879 -0.200000 -0.382684
v -0.923879 0.200000 -0.382684
v -0.831469 -0.200000 -0.555571
v -0.831469 0.200000 -0.555571
v -0.707106 -0.200000 -0.707108
v -0.707106 0.200000 -0.707108
v -0.555569 -0.200000 -0.831470
v -0.555569 0.200000 -0.831470
v -0.382682 -0.200000 -0.923880
v -0.382682 0.200000 -0.923880
v -0.195089 -0.200000 -0.980786
v -0.195089 0.200000 -0.980786
v -0.075873 0.313926 -0.770360
v 0.224706 0.313926 -0.740755
v -0.092454 0.320000 0.304779
v 0.491076 0.313926 -0.598378
v 0.204161 0.277054 0.061931
v 0.682684 0.313926 -0.364902
v -0.280886 0.320000 0.150136
v 0.770360 0.313926 -0.075874
v 0.100571 0.277054 0.188155
v 0.740755 0.313926 0.224705
v -0.304779 0.320000 -0.092454
v 0.598378 0.313926 0.491076
v -0.061932 0.277054 0.204160
v 0.364902 0.313926 0.682684
v -0.150136 0.320000 -0.280886
v 0.075874 0.313926 0.770360
v -0.188156 0.277054 0.100571
v -0.224706 0.313926 0.740755
v -0.491076 0.313926 0.598377
v -0.204161 0.277054 -0.061932
v -0.682684 0.313926 0.364902
v -0.770360 0.313926 0.075873
v -0.100571 0.277054 -0.188156
v -0.740755 0.313926 -0.224707
v 0.304779 0.320000 0.092454
v -0.598377 0.313926 -0.491077
v 0.061932 0.277054 -0.204161
v -0.364901 0.313926 -0.682685
v 0.150137 0.320000 0.280886
v 0.188156 0.277054 -0.100571
v 0.061932 -0.117457 -0.204161
v 0.188156 -0.117457 -0.100571
v 0.204161 -0.117457 0.061931
v 0.100571 -0.117457 0.188155
v -0.061932 -0.117457 0.204160
v -0.188156 -0.117457 0.100571
v -0.204161 -0.117457 -0.061932
v 0.280886 0.320000 -0.150137
v 0.092454 0.320000 -0.304779
v -0.100571 -0.117457 -0.188156
v -0.209493 0.350518 -0.063550
v -0.193070 0.350518 0.103198
v -0.103198 0.350518 -0.193071
v 0.103198 0.350518 0.193070
v 0.209494 0.350518 0.063549
v -0.063549 0.350518 0.209493
v 0.063549 0.350518 -0.209494
v 0.193070 0.350518 -0.103198
vn 0.0000 0.0000 -1.0000
vn 0.1951 0.0000 -0.9808
vn 0.3827 0.0000 -0.9239
vn 0.5556 0.0000 -0.8315
vn 0.7071 0.0000 -0.7071
vn 0.8315 0.0000 -0.5556
vn 0.9239 0.0000 -0.3827
vn 0.9808 0.0000 -0.1951
vn 1.0000 0.0000 -0.0000
vn 0.9808 0.0000 0.1951
vn 0.9239 0.0000 0.3827
vn 0.8315 0.0000 0.5556
vn 0.7071 0.0000 0.7071
vn 0.5556 0.0000 0.8315
vn 0.3827 0.0000 0.9239
vn 0.1951 0.0000 0.9808
vn -0.0000 0.0000 1.0000
vn -0.1951 0.0000 0.9808
vn -0.3827 0.0000 0.9239
vn -0.5556 0.0000 0.8315
vn -0.7071 0.0000 0.7071
vn -0.8315 0.0000 0.5556
vn -0.9239 0.0000 0.3827
vn -0.9808 0.0000 0.1951
vn -1.0000 0.0000 -0.0000
vn -0.9808 0.0000 -0.1951
vn -0.9239 0.0000 -0.3827
vn -0.8315 0.0000 -0.5556
vn -0.7071 0.0000 -0.7071
vn -0.5556 0.0000 -0.8315
vn -0.3827 0.0000 -0.9239
vn 0.4325 0.8968 -0.0935
vn 0.4116 0.8968 -0.1625
vn 0.3832 0.9007 -0.2048
vn 0.4324 0.9007 -0.0426
vn -0.1951 0.0000 -0.9808
vn 0.0000 -1.0000 -0.0000
vn 0.0597 0.7933 0.6059
vn 0.2724 0.8161 0.5097
vn -0.1678 0.8161 0.5531
vn -0.0073 0.8968 0.4425
vn 0.0935 0.8968 0.4325
vn 0.0426 0.9007 0.4324
vn -0.4354 0.8968 -0.0791
vn -0.4425 0.8968 -0.0074
vn -0.4324 0.9007 0.0426
vn -0.4158 0.9007 -0.1261
vn 0.2397 0.8968 -0.3720
vn 0.1761 0.8968 -0.4060
vn 0.1261 0.9007 -0.4158
vn 0.2756 0.9007 -0.3359
vn 0.3077 0.8968 0.3181
vn 0.3720 0.8968 0.2397
vn 0.3359 0.9007 0.2756
vn -0.3638 0.8968 0.2519
vn -0.3181 0.8968 0.3077
vn -0.2756 0.9007 0.3359
vn -0.3832 0.9007 0.2048
vn -0.1625 0.8968 -0.4116
vn -0.2519 0.8968 -0.3638
vn -0.2048 0.9007 -0.3832
vn 0.4425 0.8968 0.0073
vn -0.0791 0.8968 0.4354
vn -0.1261 0.9007 0.4158
vn -0.4060 0.8968 -0.1761
vn 0.3181 0.8968 -0.3077
vn 0.2519 0.8968 0.3638
vn 0.2048 0.9007 0.3832
vn -0.4116 0.8968 0.1625
vn -0.0935 0.8968 -0.4325
vn -0.0426 0.9007 -0.4324
vn 0.4354 0.8968 0.0791
vn 0.4158 0.9007 0.1261
vn -0.1761 0.8968 0.4060
vn -0.3720 0.8968 -0.2397
vn -0.3359 0.9007 -0.2756
vn 0.3638 0.8968 -0.2519
vn 0.1625 0.8968 0.4116
vn 0.0791 0.8968 -0.4354
vn 0.0074 0.8968 -0.4425
vn -0.4325 0.8968 0.0935
vn 0.4060 0.8968 0.1761
vn -0.2397 0.8968 0.3720
vn -0.3077 0.8968 -0.3181
vn -0.1782 -0.9258 -0.3335
vn -0.3618 -0.9258 -0.1098
vn 0.3863 0.7933 -0.4707
vn 0.1770 0.7926 -0.5835
vn 0.1678 0.8161 -0.5531
vn 0.8819 0.0000 -0.4714
vn 0.2903 0.0000 -0.9569
vn 0.5097 0.8161 -0.2724
vn -0.6059 0.7933 0.0597
vn -0.5378 0.7926 0.2874
vn -0.5097 0.8161 0.2724
vn 0.5378 0.7926 -0.2874
vn -0.5531 0.8161 -0.1678
vn 0.4714 0.0000 0.8819
vn 0.9569 0.0000 0.2903
vn -0.5835 0.7926 -0.1770
vn 0.6059 0.7933 -0.0597
vn -0.4714 0.0000 -0.8819
vn 0.5531 0.8161 0.1678
vn -0.4707 0.7933 -0.3863
vn 0.5835 0.7926 0.1770
vn -0.2724 0.8161 -0.5097
vn 0.1782 -0.9258 0.3335
vn 0.3618 -0.9258 0.1098
vn -0.2874 0.7926 -0.5378
vn 0.4707 0.7933 0.3863
vn -0.8819 0.0000 0.4714
vn -0.2903 0.0000 0.9569
vn -0.1770 0.7926 0.5835
vn -0.0597 0.7933 -0.6059
vn 0.2874 0.7926 0.5378
vn -0.3863 0.7933 0.4707
vn -0.9569 0.0000 -0.2903
vn -0.2804 0.9561 -0.0851
vn -0.2584 0.9561 0.1381
vn -0.1622 0.9829 0.0867
vn -0.1760 0.9829 -0.0534
vn 0.3335 -0.9258 -0.1782
vn 0.1098 -0.9258 -0.3618
vn -0.3335 -0.9258 0.1782
vn -0.1098 -0.9258 0.3618
vn 0.0534 0.9829 -0.1760
vn -0.0867 0.9829 -0.1622
vn -0.0534 0.9829 0.1760
vn 0.0867 0.9829 0.1622
vn 0.1760 0.9829 0.0534
vn 0.1622 0.9829 -0.0867
vn 0.2804 0.9561 0.0851
vn 0.2584 0.9561 -0.1381
vn -0.0851 0.9561 0.2804
vn 0.0851 0.9561 -0.2804
vn -0.1381 0.9561 -0.2584
vn 0.1381 0.9561 0.2584
usemtl None
s 1
f 1//1 2//1 4//2 3//2
f 3//2 4//2 6//3 5//3
f 5//3 6//3 8//4 7//4
f 7//4 8//4 10//5 9//5
f 9//5 10//5 12//6 11//6
f 11//6 12//6 14//7 13//7
f 13//7 14//7 16//8 15//8
f 15//8 16//8 18//9 17//9
f 17//9 18//9 20//10 19//10
f 19//10 20//10 22//11 21//11
f 21//11 22//11 24//12 23//12
f 23//12 24//12 26//13 25//13
f 25//13 26//13 28//14 27//14
f 27//14 28//14 30//15 29//15
f 29//15 30//15 32//16 31//16
f 31//16 32//16 34//17 33//17
f 33//17 34//17 36//18 35//18
f 35//18 36//18 38//19 37//19
f 37//19 38//19 40//20 39//20
f 39//20 40//20 42//21 41//21
f 41//21 42//21 44//22 43//22
f 43//22 44//22 46//23 45//23
f 45//23 46//23 48//24 47//24
f 47//24 48//24 50//25 49//25
f 49//25 50//25 52//26 51//26
f 51//26 52//26 54//27 53//27
f 53//27 54//27 56//28 55//28
f 55//28 56//28 58//29 57//29
f 57//29 58//29 60//30 59//30
f 59//30 60//30 62//31 61//31
f 16//32 14//33 70//34 72//35
f 61//31 62//31 64//36 63//36
f 63//36 64//36 2//1 1//1
f 1//37 3//37 5//37 7//37 9//37 11//37 13//37 15//37 17//37 19//37 21//37 23//37 25//37 27//37 29//37 31//37 33//37 35//37 37//37 39//37 41//37 43//37 45//37 47//37 49//37 51//37 53//37 55//37 57//37 59//37 61//37 63//37
f 65//38 104//39 95//40
f 34//41 32//42 80//43
f 52//44 50//45 86//46 88//47
f 8//48 6//49 66//50 68//51
f 26//52 24//53 76//54
f 44//55 42//56 83//57 85//58
f 62//59 60//60 92//61
f 18//62 16//32 72//35
f 36//63 34//41 80//43 82//64
f 54//65 52//44 88//47
f 10//66 8//48 68//51
f 28//67 26//52 76//54 78//68
f 46//69 44//55 85//58
f 64//70 62//59 92//61 65//71
f 20//72 18//62 72//35 74//73
f 38//74 36//63 82//64
f 56//75 54//65 88//47 90//76
f 12//77 10//66 68//51 70//34
f 30//78 28//67 78//68
f 4//79 2//80 65//71 66//50
f 48//81 46//69 85//58 86//46
f 2//80 64//70 65//71
f 22//82 20//72 74//73
f 40//83 38//74 82//64 83//57
f 58//84 56//75 90//76
f 14//33 12//77 70//34
f 32//42 30//78 78//68 80//43
f 50//45 48//81 86//46
f 6//49 4//79 66//50
f 24//53 22//82 74//73 76//54
f 42//56 40//83 83//57
f 60//60 58//84 90//76 92//61
f 87//85 84//86 75//86 79//85
f 83//87 82//88 99//89
f 96//90 95//91 91//91 94//90
f 83//87 99//89 100//92
f 72//93 70//94 96//95
f 85//96 83//87 100//92
f 72//93 96//95 97//97
f 98//98 97//99 69//99 73//98
f 74//100 72//93 97//97
f 86//101 85//96 100//92
f 95//91 104//102 87//102 91//91
f 86//101 100//92 101//103
f 76//104 74//100 97//97
f 88//105 86//101 101//103
f 76//104 97//97 98//106
f 73//107 69//108 89//108 93//107
f 78//109 76//104 98//106
f 90//110 88//105 101//103
f 100//111 99//112 77//112 81//111
f 66//113 65//38 95//40
f 90//110 101//103 104//39
f 80//114 78//109 98//106
f 97//99 96//90 94//90 69//99
f 92//115 90//110 104//39
f 80//114 98//106 99//89
f 68//116 66//113 95//40
f 104//102 101//117 84//117 87//102
f 82//88 80//114 99//89
f 68//116 95//40 96//95
f 65//38 92//115 104//39
f 99//112 98//98 73//98 77//112
f 70//94 68//116 96//95
f 75//118 71//119 106//120 105//121
f 101//117 100//111 81//111 84//117
f 94//122 91//123 103//123 102//122
f 69//108 94//122 102//122 89//108
f 81//124 77//125 67//125 71//124
f 77//125 73//107 93//107 67//125
f 91//123 87//85 79//85 103//123
f 84//86 81//124 71//124 75//86
f 111//126 107//127 105//121 106//120 110//128 108//129 109//130 112//131
f 89//132 102//133 112//131 109//130
f 71//119 67//134 110//128 106//120
f 102//133 103//135 111//126 112//131
f 79//136 75//118 105//121 107//127
f 67//134 93//137 108//129 110//128
f 103//135 79//136 107//127 111//126
f 93//137 89//132 109//130 108//129
