mtllib bumper.mtl
o object1
g object1
v 0.00000000 3.59899495 5.66658196
v 45.49999595 3.59899495 5.66658196
v 45.49999595 6.90100505 6.33962655
v 0.00000000 6.90100505 6.33962655
v 0.00000000 3.43414954 5.53902620
v 45.49999595 3.43414954 5.53902620
v 0.00000000 0.00000000 -0.06080105
v 45.49999595 0.00000000 -0.06080105
v 0.00000000 15.00000000 -0.06080105
v 45.49999595 15.00000000 -0.06080105
v 0.00000000 14.05547002 1.96068378
v 45.49999595 14.05547002 1.96068378
v 0.00000000 13.90808550 2.13560527
v 45.49999595 13.90808550 2.13560527
v 0.00000000 7.09191450 6.30360011
v 45.49999595 7.09191450 6.30360011
vt 1.00000000 1.00000000
vt 0.00000000 1.00000000
vt 0.00000000 0.00000000
vt 1.00000000 0.00000000
vt 1.00000000 1.00000000
vt 0.00000000 1.00000000
vt 0.00000000 0.00000000
vt 1.00000000 0.00000000
vt 1.00000000 1.00000000
vt 0.00000000 1.00000000
vt 0.00000000 0.00000000
vt 1.00000000 0.00000000
vt 1.00000000 1.00000000
vt 0.00000000 1.00000000
vt 0.00000000 0.00000000
vt 1.00000000 0.00000000
vt 1.00000000 1.00000000
vt 0.00000000 1.00000000
vt 0.00000000 0.00000000
vt 1.00000000 0.00000000
vt 1.00000000 1.00000000
vt 0.00000000 1.00000000
vt 0.00000000 0.00000000
vt 1.00000000 0.00000000
vt 1.00000000 1.00000000
vt 0.00000000 1.00000000
vt 0.00000000 0.00000000
vt 1.00000000 0.00000000
vt 0.00000000 1.00000000
vt 0.00000000 0.00000000
vt 0.31583590 0.06296867
vt 0.34316556 0.07279430
vt 0.99437125 0.52720570
vt 1.00000000 0.53993300
vt 0.89484381 0.76006700
vt 0.87491455 0.77105670
vt 1.00000000 1.00000000
vt 0.00000000 1.00000000
vt 0.00000000 0.00000000
vt 1.00000000 0.00000000
vt 0.00000000 1.00000000
vt 0.00000000 0.00000000
vt 0.31583590 0.06296867
vt 0.34316556 0.07279430
vt 0.99437125 0.52720570
vt 1.00000000 0.53993300
vt 0.89484381 0.76006700
vt 0.87491455 0.77105670
vn -0.00000000 -0.19972213 0.97985258
vn -0.00000000 -0.19972213 0.97985258
vn -0.00000000 -0.19972213 0.97985258
vn -0.00000000 -0.19972213 0.97985258
vn -0.00000000 -0.61197369 0.79087812
vn -0.00000000 -0.61197369 0.79087812
vn -0.00000000 -0.61197369 0.79087812
vn -0.00000000 -0.61197369 0.79087812
vn -0.00000000 -0.85246575 0.52278307
vn -0.00000000 -0.85246575 0.52278307
vn -0.00000000 -0.85246575 0.52278307
vn -0.00000000 -0.85246575 0.52278307
vn 0.00000000 0.00000000 -1.00000000
vn 0.00000000 0.00000000 -1.00000000
vn 0.00000000 0.00000000 -1.00000000
vn 0.00000000 0.00000000 -1.00000000
vn 0.00000000 0.90598203 0.42331615
vn 0.00000000 0.90598203 0.42331615
vn 0.00000000 0.90598203 0.42331615
vn 0.00000000 0.90598203 0.42331615
vn 0.00000000 0.76473408 0.64434601
vn 0.00000000 0.76473408 0.64434601
vn 0.00000000 0.76473408 0.64434601
vn 0.00000000 0.76473408 0.64434601
vn 0.00000000 0.52168301 0.85313940
vn 0.00000000 0.52168301 0.85313940
vn 0.00000000 0.52168301 0.85313940
vn 0.00000000 0.52168301 0.85313940
vn -1.00000000 -0.00000000 0.00000000
vn -1.00000000 -0.00000000 0.00000000
vn -1.00000000 -0.00000000 0.00000000
vn -1.00000000 -0.00000000 0.00000000
vn -1.00000000 -0.00000000 0.00000000
vn -1.00000000 -0.00000000 0.00000000
vn -1.00000000 -0.00000000 0.00000000
vn -1.00000000 -0.00000000 0.00000000
vn 0.00000000 0.18543662 0.98265623
vn 0.00000000 0.18543662 0.98265623
vn 0.00000000 0.18543662 0.98265623
vn 0.00000000 0.18543662 0.98265623
vn 1.00000000 0.00000000 -0.00000000
vn 1.00000000 0.00000000 -0.00000000
vn 1.00000000 0.00000000 -0.00000000
vn 1.00000000 0.00000000 -0.00000000
vn 1.00000000 0.00000000 -0.00000000
vn 1.00000000 0.00000000 -0.00000000
vn 1.00000000 0.00000000 -0.00000000
vn 1.00000000 0.00000000 -0.00000000
s 1
usemtl Green
f 1/1/1 2/2/2 3/3/3 4/4/4
s 2
f 5/5/5 6/6/6 2/7/7 1/8/8
s 3
f 7/9/9 8/10/10 6/11/11 5/12/12
s 4
f 9/13/13 10/14/14 8/15/15 7/16/16
s 5
f 11/17/17 12/18/18 10/19/19 9/20/20
s 6
f 13/21/21 14/22/22 12/23/23 11/24/24
s 7
f 15/25/25 16/26/26 14/27/27 13/28/28
s 8
f 9/30/30 7/29/29 5/36/36
f 5/36/36 1/35/35 13/32/32
f 1/35/35 15/33/33 13/32/32
f 1/35/35 4/34/34 15/33/33
f 5/36/36 13/32/32 9/30/30
f 13/32/32 11/31/31 9/30/30
s 9
f 4/37/37 3/38/38 16/39/39 15/40/40
s 10
f 6/48/48 8/41/41 10/42/42
f 10/42/42 12/43/43 14/44/44
f 14/44/44 16/45/45 2/47/47
f 16/45/45 3/46/46 2/47/47
f 10/42/42 14/44/44 6/48/48
f 14/44/44 2/47/47 6/48/48
