mtllib corridor_plain.mtl
o object1
g object1
v -32.00000000 38.00000000 -0.00000000
v -32.00000000 14.47261159 -0.00000000
v -31.14406017 12.95553615 -0.00000000
v -15.52012268 3.51707544 -0.00000000
v -13.66418285 3.00000000 -0.00000000
v -13.66418285 13.50000000 -0.00000000
v -12.66418285 14.50000000 -0.00000000
v 12.66418285 14.50000000 -0.00000000
v 13.66418285 13.50000000 -0.00000000
v 13.66418285 3.00000000 -0.00000000
v 15.52012268 3.51707544 -0.00000000
v 31.14406017 12.95553615 -0.00000000
v 32.00000000 14.47261159 -0.00000000
v 32.00000000 38.00000000 -0.00000000
v 35.00000000 38.00000000 -0.00000000
v 35.00000000 11.78000000 -0.00000000
v 15.50000000 0.00000000 -0.00000000
v -15.50000000 -0.00000000 -0.00000000
v -35.00000000 11.78000000 -0.00000000
v -35.00000000 38.00000000 -0.00000000
v 32.00000000 61.52738841 -0.00000000
v 31.14406017 63.04446385 -0.00000000
v 15.52012268 72.48292456 -0.00000000
v 13.66418285 73.00000000 -0.00000000
v -13.66418285 73.00000000 -0.00000000
v -15.52012268 72.48292456 -0.00000000
v -31.14406017 63.04446385 -0.00000000
v -32.00000000 61.52738841 -0.00000000
v -35.00000000 64.22000000 -0.00000000
v -15.50000000 76.00000000 -0.00000000
v 15.50000000 76.00000000 -0.00000000
v 35.00000000 64.22000000 -0.00000000
v -32.00000000 38.00000000 -74.00000000
v -32.00000000 14.47261159 -74.00000000
v -31.14406017 12.95553615 -74.00000000
v -15.52012268 3.51707544 -74.00000000
v -13.66418285 3.00000000 -74.00000000
v -13.66418285 13.50000000 -74.00000000
v -12.66418285 14.50000000 -74.00000000
v 12.66418285 14.50000000 -74.00000000
v 13.66418285 13.50000000 -74.00000000
v 13.66418285 3.00000000 -74.00000000
v 15.52012268 3.51707544 -74.00000000
v 31.14406017 12.95553615 -74.00000000
v 32.00000000 14.47261159 -74.00000000
v 32.00000000 38.00000000 -74.00000000
v 35.00000000 38.00000000 -74.00000000
v 35.00000000 11.78000000 -74.00000000
v 15.50000000 0.00000000 -74.00000000
v -15.50000000 -0.00000000 -74.00000000
v -35.00000000 11.78000000 -74.00000000
v -35.00000000 38.00000000 -74.00000000
v 32.00000000 61.52738841 -74.00000000
v 31.14406017 63.04446385 -74.00000000
v 15.52012268 72.48292456 -74.00000000
v 13.66418285 73.00000000 -74.00000000
v -13.66418285 73.00000000 -74.00000000
v -15.52012268 72.48292456 -74.00000000
v -31.14406017 63.04446385 -74.00000000
v -32.00000000 61.52738841 -74.00000000
v -35.00000000 64.22000000 -74.00000000
v -15.50000000 76.00000000 -74.00000000
v 15.50000000 76.00000000 -74.00000000
v 35.00000000 64.22000000 -74.00000000
vt 0.50000000 0.04285714
vt 0.19042910 0.04285714
vt 0.17046758 0.05508485
vt 0.04627731 0.27828396
vt 0.03947368 0.30479739
vt 0.17763158 0.30479739
vt 0.19078947 0.31908310
vt 0.19078947 0.68091690
vt 0.17763158 0.69520261
vt 0.03947368 0.69520261
vt 0.04627731 0.72171604
vt 0.17046758 0.94491515
vt 0.19042910 0.95714286
vt 0.50000000 0.95714286
vt 0.50000000 1.00000000
vt 0.15500000 1.00000000
vt 0.00000000 0.72142857
vt 0.00000000 0.27857143
vt 0.15500000 0.00000000
vt 0.50000000 0.00000000
vt 0.80957090 0.95714286
vt 0.82953242 0.94491515
vt 0.95372269 0.72171604
vt 0.96052632 0.69520261
vt 0.96052632 0.30479739
vt 0.95372269 0.27828396
vt 0.82953242 0.05508485
vt 0.80957090 0.04285714
vt 0.84500000 0.00000000
vt 1.00000000 0.27857143
vt 1.00000000 0.72142857
vt 0.84500000 1.00000000
vt 0.50000000 0.04285714
vt 0.19042910 0.04285714
vt 0.17046758 0.05508485
vt 0.04627731 0.27828396
vt 0.03947368 0.30479739
vt 0.17763158 0.30479739
vt 0.19078947 0.31908310
vt 0.19078947 0.68091690
vt 0.17763158 0.69520261
vt 0.03947368 0.69520261
vt 0.04627731 0.72171604
vt 0.17046758 0.94491515
vt 0.19042910 0.95714286
vt 0.50000000 0.95714286
vt 0.50000000 1.00000000
vt 0.15500000 1.00000000
vt 0.00000000 0.72142857
vt 0.00000000 0.27857143
vt 0.15500000 0.00000000
vt 0.50000000 0.00000000
vt 0.80957090 0.95714286
vt 0.82953242 0.94491515
vt 0.95372269 0.72171604
vt 0.96052632 0.69520261
vt 0.96052632 0.30479739
vt 0.95372269 0.27828396
vt 0.82953242 0.05508485
vt 0.80957090 0.04285714
vt 0.84500000 0.00000000
vt 1.00000000 0.27857143
vt 1.00000000 0.72142857
vt 0.84500000 1.00000000
vt 0.00000000 1.00000000
vt 0.00000000 0.00000000
vt 1.00000000 0.00000000
vt 1.00000000 1.00000000
vt 0.00000000 1.00000000
vt 0.00000000 0.00000000
vt 1.00000000 0.00000000
vt 1.00000000 1.00000000
vt 0.00000000 1.00000000
vt 0.00000000 0.00000000
vt 1.00000000 0.00000000
vt 1.00000000 1.00000000
vt 1.00000000 0.50000000
vt 0.00000000 0.50000000
vt 0.00000000 1.00000000
vt 0.00000000 0.00000000
vt 1.00000000 0.00000000
vt 1.00000000 1.00000000
vt 1.00000000 1.00000000
vt 0.00000000 1.00000000
vt 0.00000000 0.00000000
vt 1.00000000 0.00000000
vt 0.00000000 1.00000000
vt 0.00000000 0.00000000
vt 1.00000000 0.00000000
vt 1.00000000 1.00000000
vt 1.00000000 1.00000000
vt 0.00000000 1.00000000
vt 0.00000000 0.00000000
vt 1.00000000 0.00000000
vt 0.00000000 0.50000000
vt 1.00000000 0.50000000
vt 0.00000000 1.00000000
vt 0.00000000 0.00000000
vt 1.00000000 0.00000000
vt 1.00000000 1.00000000
vt 0.00000000 1.00000000
vt 0.00000000 0.00000000
vt 1.00000000 0.00000000
vt 1.00000000 1.00000000
vt 0.00000000 1.00000000
vt 0.00000000 0.00000000
vt 1.00000000 0.00000000
vt 1.00000000 1.00000000
vt 0.00000000 1.00000000
vt 0.00000000 0.00000000
vt 1.00000000 0.00000000
vt 1.00000000 1.00000000
vt 0.00000000 0.50000000
vt 1.00000000 0.50000000
vt 0.00000000 1.00000000
vt 0.00000000 0.00000000
vt 1.00000000 0.00000000
vt 1.00000000 1.00000000
vt 0.00000000 1.00000000
vt 0.00000000 0.00000000
vt 1.00000000 0.00000000
vt 1.00000000 1.00000000
vt 0.00000000 1.00000000
vt 0.00000000 0.00000000
vt 1.00000000 0.00000000
vt 1.00000000 1.00000000
vt 0.00000000 1.00000000
vt 0.00000000 0.00000000
vt 1.00000000 0.00000000
vt 1.00000000 1.00000000
vt 0.00000000 1.00000000
vt 0.00000000 0.00000000
vt 1.00000000 0.00000000
vt 1.00000000 1.00000000
vt 0.00000000 1.00000000
vt 0.00000000 0.00000000
vt 1.00000000 0.00000000
vt 1.00000000 1.00000000
vt 0.00000000 1.00000000
vt 0.00000000 0.00000000
vt 1.00000000 0.00000000
vt 1.00000000 1.00000000
vt 0.00000000 0.50000000
vt 1.00000000 0.50000000
vt 0.00000000 1.00000000
vt 0.00000000 0.00000000
vt 1.00000000 0.00000000
vt 1.00000000 1.00000000
vt 0.00000000 1.00000000
vt 0.00000000 0.00000000
vt 1.00000000 0.00000000
vt 1.00000000 1.00000000
vt 0.00000000 1.00000000
vt 0.00000000 0.00000000
vt 1.00000000 0.00000000
vt 1.00000000 1.00000000
vt 0.00000000 1.00000000
vt 0.00000000 0.00000000
vt 1.00000000 0.00000000
vt 1.00000000 1.00000000
vt 0.00000000 1.00000000
vt 0.00000000 0.00000000
vt 1.00000000 0.00000000
vt 1.00000000 1.00000000
vt 1.00000000 0.00000000
vt 1.00000000 1.00000000
vt 0.00000000 1.00000000
vt 0.00000000 0.00000000
vt 1.00000000 0.00000000
vt 1.00000000 1.00000000
vt 0.00000000 1.00000000
vt 0.00000000 0.00000000
vt 1.00000000 1.00000000
vt 0.00000000 1.00000000
vt 0.00000000 0.00000000
vt 1.00000000 0.00000000
vt 0.00000000 0.00000000
vt 1.00000000 0.00000000
vt 1.00000000 1.00000000
vt 0.00000000 1.00000000
vt 0.00000000 0.00000000
vt 1.00000000 0.00000000
vt 1.00000000 1.00000000
vt 0.00000000 1.00000000
vn -0.00000000 -0.00000000 1.00000000
vn -0.00000000 -0.00000000 1.00000000
vn -0.00000000 -0.00000000 1.00000000
vn -0.00000000 -0.00000000 1.00000000
vn -0.00000000 -0.00000000 1.00000000
vn -0.00000000 -0.00000000 1.00000000
vn -0.00000000 -0.00000000 1.00000000
vn -0.00000000 -0.00000000 1.00000000
vn -0.00000000 -0.00000000 1.00000000
vn -0.00000000 -0.00000000 1.00000000
vn -0.00000000 -0.00000000 1.00000000
vn -0.00000000 -0.00000000 1.00000000
vn -0.00000000 -0.00000000 1.00000000
vn -0.00000000 -0.00000000 1.00000000
vn -0.00000000 -0.00000000 1.00000000
vn -0.00000000 -0.00000000 1.00000000
vn -0.00000000 -0.00000000 1.00000000
vn -0.00000000 -0.00000000 1.00000000
vn -0.00000000 -0.00000000 1.00000000
vn -0.00000000 -0.00000000 1.00000000
vn -0.00000000 -0.00000000 1.00000000
vn -0.00000000 -0.00000000 1.00000000
vn -0.00000000 -0.00000000 1.00000000
vn -0.00000000 -0.00000000 1.00000000
vn -0.00000000 -0.00000000 1.00000000
vn -0.00000000 -0.00000000 1.00000000
vn -0.00000000 -0.00000000 1.00000000
vn -0.00000000 -0.00000000 1.00000000
vn -0.00000000 -0.00000000 1.00000000
vn -0.00000000 -0.00000000 1.00000000
vn -0.00000000 -0.00000000 1.00000000
vn -0.00000000 -0.00000000 1.00000000
vn 0.00000000 0.00000000 -1.00000000
vn 0.00000000 0.00000000 -1.00000000
vn 0.00000000 0.00000000 -1.00000000
vn 0.00000000 0.00000000 -1.00000000
vn 0.00000000 0.00000000 -1.00000000
vn 0.00000000 0.00000000 -1.00000000
vn 0.00000000 0.00000000 -1.00000000
vn 0.00000000 0.00000000 -1.00000000
vn 0.00000000 0.00000000 -1.00000000
vn 0.00000000 0.00000000 -1.00000000
vn 0.00000000 0.00000000 -1.00000000
vn 0.00000000 0.00000000 -1.00000000
vn 0.00000000 0.00000000 -1.00000000
vn 0.00000000 0.00000000 -1.00000000
vn 0.00000000 0.00000000 -1.00000000
vn 0.00000000 0.00000000 -1.00000000
vn 0.00000000 0.00000000 -1.00000000
vn 0.00000000 0.00000000 -1.00000000
vn 0.00000000 0.00000000 -1.00000000
vn 0.00000000 0.00000000 -1.00000000
vn 0.00000000 0.00000000 -1.00000000
vn 0.00000000 0.00000000 -1.00000000
vn 0.00000000 0.00000000 -1.00000000
vn 0.00000000 0.00000000 -1.00000000
vn 0.00000000 0.00000000 -1.00000000
vn 0.00000000 0.00000000 -1.00000000
vn 0.00000000 0.00000000 -1.00000000
vn 0.00000000 0.00000000 -1.00000000
vn 0.00000000 0.00000000 -1.00000000
vn 0.00000000 0.00000000 -1.00000000
vn 0.00000000 0.00000000 -1.00000000
vn 0.00000000 0.00000000 -1.00000000
vn -0.00000000 1.00000000 0.00000000
vn -0.00000000 1.00000000 0.00000000
vn -0.00000000 1.00000000 0.00000000
vn -0.00000000 1.00000000 0.00000000
vn 0.51707544 0.85593983 0.00000000
vn 0.51707544 0.85593983 0.00000000
vn 0.51707544 0.85593983 0.00000000
vn 0.51707544 0.85593983 0.00000000
vn 1.00000000 -0.00000000 0.00000000
vn 1.00000000 -0.00000000 0.00000000
vn 1.00000000 -0.00000000 0.00000000
vn 1.00000000 -0.00000000 0.00000000
vn 1.00000000 -0.00000000 0.00000000
vn 1.00000000 -0.00000000 0.00000000
vn 0.51707544 -0.85593983 0.00000000
vn 0.51707544 -0.85593983 0.00000000
vn 0.51707544 -0.85593983 0.00000000
vn 0.51707544 -0.85593983 0.00000000
vn 0.00000000 -1.00000000 0.00000000
vn 0.00000000 -1.00000000 0.00000000
vn 0.00000000 -1.00000000 0.00000000
vn 0.00000000 -1.00000000 0.00000000
vn -0.51707544 -0.85593983 -0.00000000
vn -0.51707544 -0.85593983 -0.00000000
vn -0.51707544 -0.85593983 -0.00000000
vn -0.51707544 -0.85593983 -0.00000000
vn -1.00000000 -0.00000000 0.00000000
vn -1.00000000 -0.00000000 0.00000000
vn -1.00000000 -0.00000000 0.00000000
vn -1.00000000 -0.00000000 0.00000000
vn -1.00000000 -0.00000000 0.00000000
vn -1.00000000 -0.00000000 0.00000000
vn -0.51707544 0.85593983 0.00000000
vn -0.51707544 0.85593983 0.00000000
vn -0.51707544 0.85593983 0.00000000
vn -0.51707544 0.85593983 0.00000000
vn 0.51707544 -0.85593983 -0.00000000
vn 0.51707544 -0.85593983 -0.00000000
vn 0.51707544 -0.85593983 -0.00000000
vn 0.51707544 -0.85593983 -0.00000000
vn 0.87094071 -0.49138811 -0.00000000
vn 0.87094071 -0.49138811 -0.00000000
vn 0.87094071 -0.49138811 -0.00000000
vn 0.87094071 -0.49138811 -0.00000000
vn 1.00000000 0.00000000 -0.00000000
vn 1.00000000 0.00000000 -0.00000000
vn 1.00000000 0.00000000 -0.00000000
vn 1.00000000 0.00000000 -0.00000000
vn 1.00000000 0.00000000 -0.00000000
vn 1.00000000 0.00000000 -0.00000000
vn 0.87094071 0.49138811 0.00000000
vn 0.87094071 0.49138811 0.00000000
vn 0.87094071 0.49138811 0.00000000
vn 0.87094071 0.49138811 0.00000000
vn 0.51707544 0.85593983 0.00000000
vn 0.51707544 0.85593983 0.00000000
vn 0.51707544 0.85593983 0.00000000
vn 0.51707544 0.85593983 0.00000000
vn 0.26838422 0.96331195 0.00000000
vn 0.26838422 0.96331195 0.00000000
vn 0.26838422 0.96331195 0.00000000
vn 0.26838422 0.96331195 0.00000000
vn -0.26838422 0.96331195 -0.00000000
vn -0.26838422 0.96331195 -0.00000000
vn -0.26838422 0.96331195 -0.00000000
vn -0.26838422 0.96331195 -0.00000000
vn -0.51707544 0.85593983 -0.00000000
vn -0.51707544 0.85593983 -0.00000000
vn -0.51707544 0.85593983 -0.00000000
vn -0.51707544 0.85593983 -0.00000000
vn -0.87094071 0.49138811 -0.00000000
vn -0.87094071 0.49138811 -0.00000000
vn -0.87094071 0.49138811 -0.00000000
vn -0.87094071 0.49138811 -0.00000000
vn -1.00000000 0.00000000 -0.00000000
vn -1.00000000 0.00000000 -0.00000000
vn -1.00000000 0.00000000 -0.00000000
vn -1.00000000 0.00000000 -0.00000000
vn -1.00000000 0.00000000 -0.00000000
vn -1.00000000 0.00000000 -0.00000000
vn -0.87094071 -0.49138811 -0.00000000
vn -0.87094071 -0.49138811 -0.00000000
vn -0.87094071 -0.49138811 -0.00000000
vn -0.87094071 -0.49138811 -0.00000000
vn -0.51707544 -0.85593983 -0.00000000
vn -0.51707544 -0.85593983 -0.00000000
vn -0.51707544 -0.85593983 -0.00000000
vn -0.51707544 -0.85593983 -0.00000000
vn -0.26838422 -0.96331195 -0.00000000
vn -0.26838422 -0.96331195 -0.00000000
vn -0.26838422 -0.96331195 -0.00000000
vn -0.26838422 -0.96331195 -0.00000000
vn 0.00000000 -1.00000000 -0.00000000
vn 0.00000000 -1.00000000 -0.00000000
vn 0.00000000 -1.00000000 -0.00000000
vn 0.00000000 -1.00000000 -0.00000000
vn 0.26838422 -0.96331195 -0.00000000
vn 0.26838422 -0.96331195 -0.00000000
vn 0.26838422 -0.96331195 -0.00000000
vn 0.26838422 -0.96331195 -0.00000000
vn -1.00000000 0.00000000 -0.00000000
vn -1.00000000 0.00000000 -0.00000000
vn -1.00000000 0.00000000 -0.00000000
vn -1.00000000 0.00000000 -0.00000000
vn 1.00000000 -0.00000000 0.00000000
vn 1.00000000 -0.00000000 0.00000000
vn 1.00000000 -0.00000000 0.00000000
vn 1.00000000 -0.00000000 0.00000000
vn -0.00000000 1.00000000 -0.00000000
vn -0.00000000 1.00000000 -0.00000000
vn -0.00000000 1.00000000 -0.00000000
vn -0.00000000 1.00000000 -0.00000000
vn 0.70710678 0.70710678 -0.00000000
vn 0.70710678 0.70710678 -0.00000000
vn 0.70710678 0.70710678 -0.00000000
vn 0.70710678 0.70710678 -0.00000000
vn -0.70710678 0.70710678 0.00000000
vn -0.70710678 0.70710678 0.00000000
vn -0.70710678 0.70710678 0.00000000
vn -0.70710678 0.70710678 0.00000000
s 1
usemtl Red
f 7/7/7 6/6/6 5/5/5
f 10/10/10 5/5/5 18/18/18
f 4/4/4 19/19/19 18/18/18
f 3/3/3 2/2/2 19/19/19
f 2/2/2 1/1/1 20/20/20
f 29/29/29 20/20/20 28/28/28
f 30/30/30 29/29/29 26/26/26
f 31/31/31 30/30/30 25/25/25
f 25/25/25 24/24/24 31/31/31
f 24/24/24 23/23/23 31/31/31
f 23/23/23 22/22/22 32/32/32
f 21/21/21 15/15/15 32/32/32
f 16/16/16 15/15/15 13/13/13
f 17/17/17 16/16/16 11/11/11
f 16/16/16 12/12/12 11/11/11
f 16/16/16 13/13/13 12/12/12
f 15/15/15 14/14/14 13/13/13
f 21/21/21 14/14/14 15/15/15
f 22/22/22 21/21/21 32/32/32
f 23/23/23 32/32/32 31/31/31
f 30/30/30 26/26/26 25/25/25
f 29/29/29 27/27/27 26/26/26
f 29/29/29 28/28/28 27/27/27
f 20/20/20 1/1/1 28/28/28
f 2/2/2 20/20/20 19/19/19
f 4/4/4 3/3/3 19/19/19
f 18/18/18 17/17/17 10/10/10
f 17/17/17 11/11/11 10/10/10
f 10/10/10 9/9/9 8/8/8
f 5/5/5 4/4/4 18/18/18
f 10/10/10 8/8/8 5/5/5
f 8/8/8 7/7/7 5/5/5
s 2
f 37/37/37 38/38/38 39/39/39
f 50/50/50 37/37/37 42/42/42
f 42/42/42 43/43/43 49/49/49
f 43/43/43 48/48/48 49/49/49
f 44/44/44 45/45/45 48/48/48
f 45/45/45 46/46/46 47/47/47
f 64/64/64 47/47/47 53/53/53
f 63/63/63 64/64/64 55/55/55
f 57/57/57 62/62/62 63/63/63
f 58/58/58 61/61/61 62/62/62
f 59/59/59 60/60/60 61/61/61
f 60/60/60 33/33/33 52/52/52
f 51/51/51 52/52/52 34/34/34
f 51/51/51 35/35/35 36/36/36
f 51/51/51 34/34/34 35/35/35
f 52/52/52 33/33/33 34/34/34
f 60/60/60 52/52/52 61/61/61
f 58/58/58 59/59/59 61/61/61
f 57/57/57 58/58/58 62/62/62
f 63/63/63 56/56/56 57/57/57
f 63/63/63 55/55/55 56/56/56
f 64/64/64 54/54/54 55/55/55
f 64/64/64 53/53/53 54/54/54
f 47/47/47 46/46/46 53/53/53
f 45/45/45 47/47/47 48/48/48
f 43/43/43 44/44/44 48/48/48
f 40/40/40 41/41/41 42/42/42
f 42/42/42 49/49/49 50/50/50
f 50/50/50 51/51/51 36/36/36
f 50/50/50 36/36/36 37/37/37
f 37/37/37 40/40/40 42/42/42
f 37/37/37 39/39/39 40/40/40
s 3
f 63/68/68 62/67/67 31/65/65
f 62/67/67 30/66/66 31/65/65
s 4
f 64/72/72 63/71/71 32/69/69
f 63/71/71 31/70/70 32/69/69
s 5
f 15/78/78 16/73/73 48/76/76
f 48/76/76 47/77/77 15/78/78
f 47/77/77 64/75/75 15/78/78
f 64/75/75 32/74/74 15/78/78
s 6
f 49/82/82 48/81/81 16/80/80
f 49/82/82 16/80/80 17/79/79
s 7
f 49/86/86 17/85/85 50/83/83
f 17/85/85 18/84/84 50/83/83
s 8
f 51/90/90 50/89/89 18/88/88
f 51/90/90 18/88/88 19/87/87
s 9
f 51/94/94 19/93/93 20/95/95
f 20/95/95 29/92/92 52/96/96
f 29/92/92 61/91/91 52/96/96
f 52/96/96 51/94/94 20/95/95
s 10
f 62/100/100 61/99/99 30/97/97
f 61/99/99 29/98/98 30/97/97
s 11
f 26/101/101 27/102/102 58/104/104
f 27/102/102 59/103/103 58/104/104
s 12
f 27/105/105 28/106/106 59/108/108
f 28/106/106 60/107/107 59/108/108
s 13
f 60/112/112 28/109/109 1/113/113
f 1/113/113 34/111/111 33/114/114
f 1/113/113 2/110/110 34/111/111
f 1/113/113 33/114/114 60/112/112
s 14
f 2/115/115 3/116/116 35/117/117
f 2/115/115 35/117/117 34/118/118
s 15
f 3/119/119 4/120/120 36/121/121
f 3/119/119 36/121/121 35/122/122
s 16
f 4/123/123 5/124/124 37/125/125
f 4/123/123 37/125/125 36/126/126
s 17
f 10/127/127 11/128/128 43/129/129
f 10/127/127 43/129/129 42/130/130
s 18
f 11/131/131 12/132/132 44/133/133
f 11/131/131 44/133/133 43/134/134
s 19
f 12/135/135 13/136/136 45/137/137
f 12/135/135 45/137/137 44/138/138
s 20
f 45/142/142 13/139/139 14/143/143
f 14/143/143 53/141/141 46/144/144
f 14/143/143 21/140/140 53/141/141
f 14/143/143 46/144/144 45/142/142
s 21
f 21/145/145 22/146/146 53/148/148
f 22/146/146 54/147/147 53/148/148
s 22
f 22/149/149 23/150/150 54/152/152
f 23/150/150 55/151/151 54/152/152
s 23
f 23/153/153 24/154/154 55/156/156
f 24/154/154 56/155/155 55/156/156
s 24
f 24/157/157 25/158/158 56/160/160
f 25/158/158 57/159/159 56/160/160
s 25
f 25/161/161 26/162/162 57/164/164
f 26/162/162 58/163/163 57/164/164
s 26
f 6/165/165 38/166/166 5/168/168
f 38/166/166 37/167/167 5/168/168
s 27
f 10/172/172 42/171/171 9/169/169
f 42/171/171 41/170/170 9/169/169
s 28
f 39/173/173 7/174/174 8/175/175
f 39/173/173 8/175/175 40/176/176
s 29
f 9/177/177 41/178/178 8/180/180
f 41/178/178 40/179/179 8/180/180
s 30
f 7/181/181 39/182/182 6/184/184
f 39/182/182 38/183/183 6/184/184
