# Wavefront Obj file
# 
# verts: 44 uv-s: 114
mtllib posterUV.mtl

g Plane
#pivot 0.000000 0.000000 0.000000

v -1.246824 0.070257 1.618280
v 1.203474 0.070257 1.618280
v -1.218132 0.035636 -1.428926
v 1.245483 0.035636 -1.428926
v -1.239438 0.024856 1.671319
v 1.231808 0.024856 1.671319
v 1.231808 0.000000 1.636653
v -1.231808 0.000000 1.636653
v 1.237316 0.066404 -1.480514
v -1.224361 0.066404 -1.480514
v -1.231808 0.000000 -1.442997
v 1.231808 0.000000 -1.442997
v -1.262360 0.072528 1.646123
v 1.198556 0.072528 1.646123
v 1.211624 0.054821 1.664058
v -1.251992 0.054821 1.664058
v 1.231808 0.015874 -1.483587
v -1.231808 0.015874 -1.483587
v 1.245483 0.063328 -1.458675
v -1.218132 0.063328 -1.458675
v 1.231808 0.041139 -1.497076
v -1.225728 0.041139 -1.497076
v -1.251992 0.055516 1.667328
v -1.239438 0.024268 1.674899
v 1.231808 0.024268 1.674899
v 1.211624 0.055516 1.667328
v -1.231808 -0.001268 1.639285
v 1.231808 -0.001268 1.639286
v -1.246824 0.071090 1.615186
v -1.262360 0.076761 1.645680
v 1.198556 0.076761 1.645680
v 1.203474 0.071090 1.615186
v -1.218132 0.065084 -1.456537
v -1.218132 0.036703 -1.426048
v 1.245483 0.036703 -1.426048
v 1.245483 0.065084 -1.456537
v -1.225728 0.041207 -1.500679
v -1.224361 0.068757 -1.482619
v 1.237316 0.068757 -1.482619
v 1.231808 0.041207 -1.500679
v -1.231808 -0.001665 -1.444883
v -1.231808 0.014601 -1.486474
v 1.231808 0.014601 -1.486474
v 1.231808 -0.001665 -1.444883
# 44 positions

vt 0.968117 0.334549
vt 0.968117 0.995000
vt 0.960142 0.995000
vt 0.960142 0.334549
vt 0.670862 0.327350
vt 0.010411 0.327350
vt 0.005000 0.319317
vt 0.667496 0.319317
vt 0.005000 0.312654
vt 0.665451 0.312654
vt 0.006630 0.298049
vt 0.665451 0.298049
vt 0.666927 0.291276
vt 0.006996 0.291276
vt 0.830598 0.995000
vt 0.830598 0.334549
vt 0.005000 0.334549
vt 0.005000 0.995000
vt 0.994171 0.335935
vt 0.994171 0.992815
vt 0.986706 0.991497
vt 0.986706 0.331770
vt 0.981898 0.995000
vt 0.981898 0.334549
vt 0.893230 0.334549
vt 0.893230 0.995000
vt 0.881546 0.995000
vt 0.881546 0.334549
vt 0.973972 0.332880
vt 0.973972 0.992811
vt 0.005000 0.304822
vt 0.665451 0.304822
vt 0.902026 0.329138
vt 0.910645 0.332504
vt 0.910645 0.995000
vt 0.902026 0.989589
vt 0.918410 0.332504
vt 0.927958 0.334549
vt 0.927958 0.995000
vt 0.918410 0.995000
vt 0.936842 0.990835
vt 0.945017 0.995000
vt 0.945017 0.335273
vt 0.936842 0.333955
vt 0.950821 0.992221
vt 0.950821 0.331770
vt 0.699011 0.299868
vt 0.707045 0.301815
vt 0.707202 0.302774
vt 0.698825 0.300745
vt 0.694873 0.287596
vt 0.694265 0.295060
vt 0.693130 0.294941
vt 0.694650 0.286766
vt 0.696529 0.314961
vt 0.695920 0.322425
vt 0.696143 0.323254
vt 0.697664 0.315079
vt 0.677085 0.317499
vt 0.683749 0.308206
vt 0.683592 0.307246
vt 0.676746 0.316794
vt 0.713708 0.292521
vt 0.714048 0.293227
vt 0.995000 0.335935
vt 0.995000 0.992815
vt 0.691782 0.310153
vt 0.691968 0.309276
vt 0.928663 0.334549
vt 0.928663 0.995000
vt 0.845530 0.993330
vt 0.853704 0.993330
vt 0.853704 0.332880
vt 0.845530 0.332880
vt 0.665298 0.274909
vt 0.664931 0.282294
vt 0.005000 0.282294
vt 0.006477 0.274909
vt 0.861571 0.334549
vt 0.872721 0.334549
vt 0.872721 0.995000
vt 0.861571 0.995000
vt 0.838538 0.995000
vt 0.838538 0.335069
vt 0.666927 0.267776
vt 0.006477 0.267776
vt 0.725739 0.311925
vt 0.718965 0.308309
vt 0.718948 0.307343
vt 0.726080 0.311151
vt 0.729994 0.322807
vt 0.730441 0.322301
vt 0.959370 0.995000
vt 0.959370 0.334549
vt 0.719570 0.278936
vt 0.712796 0.283376
vt 0.712815 0.284342
vt 0.720201 0.279501
vt 0.706023 0.279760
vt 0.705682 0.280534
vt 0.712192 0.312749
vt 0.713017 0.318604
vt 0.712546 0.319177
vt 0.711562 0.312185
vt 0.718745 0.273082
vt 0.719216 0.272509
vt 0.861066 0.995000
vt 0.861066 0.334549
vt 0.701768 0.268879
vt 0.701322 0.269384
vt 0.711321 0.265107
vt 0.711607 0.264335
vt 0.720441 0.326579
vt 0.720155 0.327350
# 114 texture coordinates

vn -0.434683 -0.862499 -0.259126
vn 0.718891 -0.694364 0.032472
vn -0.605904 -0.780107 -0.155929
vn 0.605904 -0.780107 -0.155929
vn -0.814988 -0.109959 -0.568950
vn 0.813709 0.430446 -0.390632
vn 0.446653 0.597348 -0.666090
vn -0.428058 0.548792 -0.718049
vn 0.807160 -0.590331 0.001198
vn -0.831845 -0.420883 0.361789
vn -0.407227 0.689629 0.598814
vn 0.407227 0.689629 0.598814
vn -0.778836 -0.610607 -0.143434
vn 0.749710 -0.524283 -0.403810
vn 0.653951 0.003855 -0.756527
vn -0.724592 -0.562876 -0.397666
vn 0.794008 0.454374 0.403850
vn -0.789892 0.500056 0.354985
vn 0.759318 -0.498761 -0.417941
vn -0.764114 -0.625369 -0.158250
vn 0.833571 -0.112202 0.540897
vn -0.824329 0.103127 0.556639
vn -0.635948 0.222754 0.738885
vn -0.538135 -0.369869 0.757369
vn 0.687089 -0.136545 0.713627
vn 0.546411 0.586824 0.597555
vn -0.524397 -0.849789 0.053543
vn 0.608299 -0.790735 0.068637
vn -0.447692 0.246091 -0.859657
vn -0.812880 0.571507 0.112273
vn 0.518592 0.821173 0.238197
vn 0.611385 -0.101757 -0.784764
vn -0.606974 0.704063 0.368615
vn -0.556718 -0.162823 0.814588
vn 0.556718 -0.162823 0.814588
vn 0.697288 0.665168 0.267098
vn -0.581636 0.076158 -0.809876
vn -0.635055 0.711572 -0.300616
vn 0.593975 0.714860 -0.369010
vn 0.578815 0.013629 -0.815345
vn -0.606506 -0.782903 0.138612
vn -0.683936 -0.504359 -0.527117
vn 0.636805 -0.576293 -0.512217
vn 0.606506 -0.782903 0.138612
# 44 normals

usemtl default
f 20/1/20 19/2/19 4/3/4 3/4/3
f 16/5/16 15/6/15 6/7/6 5/8/5
f 5/8/5 6/7/6 7/9/7 8/10/8
f 22/11/22 21/12/21 9/13/9 10/14/10
f 8/15/8 7/16/7 12/17/12 11/18/11
f 1/19/1 2/20/2 14/21/14 13/22/13
f 13/22/13 14/21/14 15/23/15 16/24/16
f 11/25/11 12/26/12 17/27/17 18/28/18
f 10/29/10 9/30/9 19/2/19 20/1/20
f 18/31/18 17/32/17 21/12/21 22/11/22
f 23/33/23 24/34/24 25/35/25 26/36/26
f 24/37/24 27/38/27 28/39/28 25/40/25
f 29/41/29 30/42/30 31/43/31 32/44/32
f 30/42/30 23/45/23 26/46/26 31/43/31
f 16/47/16 5/48/5 24/49/24 23/50/23
f 1/51/1 13/52/13 30/53/30 29/54/29
f 14/55/14 2/56/2 32/57/32 31/58/31
f 7/59/7 6/60/6 25/61/25 28/62/28
f 5/48/5 8/63/8 27/64/27 24/49/24
f 2/20/2 1/19/1 29/65/29 32/66/32
f 6/60/6 15/67/15 26/68/26 25/61/25
f 15/67/15 14/55/14 31/58/31 26/68/26
f 8/69/8 7/70/7 28/39/28 27/38/27
f 13/52/13 16/47/16 23/50/23 30/53/30
f 33/71/33 34/72/34 35/73/35 36/74/36
f 37/75/37 38/76/38 39/77/39 40/78/40
f 41/79/41 42/80/42 43/81/43 44/82/44
f 38/83/38 33/71/33 36/74/36 39/84/39
f 42/85/42 37/75/37 40/78/40 43/86/43
f 18/87/18 22/88/22 37/89/37 42/90/42
f 11/91/11 18/87/18 42/90/42 41/92/41
f 3/4/3 4/3/4 35/93/35 34/94/34
f 9/95/9 21/96/21 40/97/40 39/98/39
f 21/96/21 17/99/17 43/100/43 40/97/40
f 10/101/10 20/102/20 33/103/33 38/104/38
f 19/105/19 9/95/9 39/98/39 36/106/36
f 12/107/12 11/108/11 41/79/41 44/82/44
f 17/99/17 12/109/12 44/110/44 43/100/43
f 22/88/22 10/101/10 38/104/38 37/89/37
f 4/111/4 19/105/19 36/106/36 35/112/35
f 20/102/20 3/113/3 34/114/34 33/103/33

# 41 faces
